# Created by Every File Explorer

mtllib I_star.mtl

v 0 7.23153 2.31109
v 2.0593 10.0659 1.76172
v 0 11.3313 1.65667
v 0 7.23153 2.31109
v 3.45293 8.49841 1.7712
v 2.0593 10.0659 1.76172
v 0 7.23153 2.31109
v 0 11.3313 1.65667
v -2.0593 10.0659 1.76172
v 0 7.23153 2.31109
v 3.33201 6.14889 1.76172
v 3.45293 8.49841 1.7712
v 0 7.23153 2.31109
v -2.0593 10.0659 1.76172
v -3.45293 8.49841 1.7712
v 0 7.23153 2.31109
v 2.40976 3.91477 1.65667
v 3.33201 6.14889 1.76172
v 0 7.23153 2.31109
v -3.45293 8.49841 1.7712
v -3.33201 6.14889 1.76172
v 0 7.23153 2.31109
v 0 3.72804 1.76172
v 2.40976 3.91477 1.65667
v 0 7.23153 2.31109
v -3.33201 6.14889 1.76172
v -2.40976 3.91477 1.65667
v 0 7.23153 2.31109
v -2.40976 3.91477 1.65667
v 0 3.72804 1.76172
v 0 7.23153 -2.31109
v 0 11.3313 -1.65667
v 2.0593 10.0659 -1.76172
v 0 7.23153 -2.31109
v -2.0593 10.0659 -1.76172
v 0 11.3313 -1.65667
v 0 7.23153 -2.31109
v 2.0593 10.0659 -1.76172
v 3.89907 8.49841 -1.65667
v 0 7.23153 -2.31109
v -3.89907 8.49841 -1.65667
v -2.0593 10.0659 -1.76172
v 0 7.23153 -2.31109
v 3.89907 8.49841 -1.65667
v 3.33201 6.14889 -1.76172
v 0 7.23153 -2.31109
v -3.33201 6.14889 -1.76172
v -3.89907 8.49841 -1.65667
v 0 7.23153 -2.31109
v 3.33201 6.14889 -1.76172
v 2.40976 3.91477 -1.65667
v 0 7.23153 -2.31109
v -2.40976 3.91477 -1.65667
v -3.33201 6.14889 -1.76172
v 0 7.23153 -2.31109
v 2.40976 3.91477 -1.65667
v 0 3.72804 -1.76172
v 0 7.23153 -2.31109
v 0 3.72804 -1.76172
v -2.40976 3.91477 -1.65667
v 0 11.3313 -1.65667
v 0 15.5076 0
v 2.0593 10.0659 -1.76172
v 0 11.3313 -1.65667
v -2.0593 10.0659 -1.76172
v 0 15.5076 0
v 3.89907 8.49841 -1.65667
v 7.87102 9.78898 0
v 3.33201 6.14889 -1.76172
v 3.89907 8.49841 -1.65667
v 2.0593 10.0659 -1.76172
v 7.87102 9.78898 0
v -3.89907 8.49841 -1.65667
v -3.33201 6.14889 -1.76172
v -7.87102 9.78898 0
v -3.89907 8.49841 -1.65667
v -7.87102 9.78898 0
v -2.0593 10.0659 -1.76172
v 2.40976 3.91477 -1.65667
v 4.86456 0.536033 0
v 0 3.72804 -1.76172
v 2.40976 3.91477 -1.65667
v 3.33201 6.14889 -1.76172
v 4.86456 0.536033 0
v -2.40976 3.91477 -1.65667
v -4.86456 0.536033 0
v -3.33201 6.14889 -1.76172
v -2.40976 3.91477 -1.65667
v 0 3.72804 -1.76172
v -4.86456 0.536033 0
v 0 15.5076 0
v 2.58806 10.7937 0
v 2.0593 10.0659 -1.76172
v 0 15.5076 0
v -2.0593 10.0659 -1.76172
v -2.58806 10.7937 0
v 0 15.5076 0
v 2.0593 10.0659 1.76172
v 2.58806 10.7937 0
v 0 15.5076 0
v -2.58806 10.7937 0
v -2.0593 10.0659 1.76172
v 0 15.5076 0
v 0 11.3313 1.65667
v 2.0593 10.0659 1.76172
v 0 15.5076 0
v -2.0593 10.0659 1.76172
v 0 11.3313 1.65667
v -2.58806 10.7937 0
v -2.0593 10.0659 -1.76172
v -7.87102 9.78898 0
v -2.58806 10.7937 0
v -7.87102 9.78898 0
v -2.0593 10.0659 1.76172
v 2.58806 10.7937 0
v 7.87102 9.78898 0
v 2.0593 10.0659 -1.76172
v 2.58806 10.7937 0
v 2.0593 10.0659 1.76172
v 7.87102 9.78898 0
v 3.33201 6.14889 -1.76172
v 4.18757 5.8709 0
v 4.86456 0.536033 0
v 3.33201 6.14889 -1.76172
v 7.87102 9.78898 0
v 4.18757 5.8709 0
v -3.33201 6.14889 -1.76172
v -4.86456 0.536033 0
v -4.18757 5.8709 0
v -3.33201 6.14889 -1.76172
v -4.18757 5.8709 0
v -7.87102 9.78898 0
v 0 3.72804 -1.76172
v 4.86456 0.536033 0
v 0 2.82846 0
v 0 3.72804 -1.76172
v 0 2.82846 0
v -4.86456 0.536033 0
v -2.0593 10.0659 1.76172
v -7.87102 9.78898 0
v -3.45293 8.49841 1.7712
v 2.0593 10.0659 1.76172
v 3.45293 8.49841 1.7712
v 7.87102 9.78898 0
v 4.18757 5.8709 0
v 3.33201 6.14889 1.76172
v 4.86456 0.536033 0
v 4.18757 5.8709 0
v 7.87102 9.78898 0
v 3.33201 6.14889 1.76172
v 7.87102 9.78898 0
v 3.45293 8.49841 1.7712
v 3.33201 6.14889 1.76172
v -4.18757 5.8709 0
v -4.86456 0.536033 0
v -3.33201 6.14889 1.76172
v -4.18757 5.8709 0
v -3.33201 6.14889 1.76172
v -7.87102 9.78898 0
v -7.87102 9.78898 0
v -3.33201 6.14889 1.76172
v -3.45293 8.49841 1.7712
v 0 2.82846 0
v 4.86456 0.536033 0
v 0 3.72804 1.76172
v 0 2.82846 0
v 0 3.72804 1.76172
v -4.86456 0.536033 0
v 3.33201 6.14889 1.76172
v 2.40976 3.91477 1.65667
v 4.86456 0.536033 0
v 4.86456 0.536033 0
v 2.40976 3.91477 1.65667
v 0 3.72804 1.76172
v -3.33201 6.14889 1.76172
v -4.86456 0.536033 0
v -2.40976 3.91477 1.65667
v -2.40976 3.91477 1.65667
v -4.86456 0.536033 0
v 0 3.72804 1.76172

vn 0 0 1
vn 0.269056 0.370077 0.889186
vn 0 0.515403 0.856948
vn 0 0 1
vn 0.490177 0.159268 0.856948
vn 0.269056 0.370077 0.889186
vn 0 0 1
vn 0 0.515403 0.856948
vn -0.269056 0.370077 0.889186
vn 0 0 1
vn 0.435197 -0.141252 0.889186
vn 0.490177 0.159268 0.856948
vn 0 0 1
vn -0.269056 0.370077 0.889186
vn -0.490177 0.159268 0.856948
vn 0 0 1
vn 0.302946 -0.416969 0.856948
vn 0.435197 -0.141252 0.889186
vn 0 0 1
vn -0.490177 0.159268 0.856948
vn -0.435197 -0.141252 0.889186
vn 0 0 1
vn -0.000145063 -0.457546 0.889186
vn 0.302946 -0.416969 0.856948
vn 0 0 1
vn -0.435197 -0.141252 0.889186
vn -0.302946 -0.416969 0.856948
vn 0 0 1
vn -0.302946 -0.416969 0.856948
vn -0.000145063 -0.457546 0.889186
vn 0 0 -1
vn 0 0.515403 -0.856948
vn 0.269056 0.370077 -0.889186
vn 0 0 -1
vn -0.269056 0.370077 -0.889186
vn 0 0.515403 -0.856948
vn 0 0 -1
vn 0.269056 0.370077 -0.889186
vn 0.490177 0.159268 -0.856948
vn 0 0 -1
vn -0.490177 0.159268 -0.856948
vn -0.269056 0.370077 -0.889186
vn 0 0 -1
vn 0.490177 0.159268 -0.856948
vn 0.435197 -0.141252 -0.889186
vn 0 0 -1
vn -0.435197 -0.141252 -0.889186
vn -0.490177 0.159268 -0.856948
vn 0 0 -1
vn 0.435197 -0.141252 -0.889186
vn 0.302946 -0.416969 -0.856948
vn 0 0 -1
vn -0.302946 -0.416969 -0.856948
vn -0.435197 -0.141252 -0.889186
vn 0 0 -1
vn 0.302946 -0.416969 -0.856948
vn -0.000145063 -0.457546 -0.889186
vn 0 0 -1
vn -0.000145063 -0.457546 -0.889186
vn -0.302946 -0.416969 -0.856948
vn 0 0.515403 -0.856948
vn 0 1 0
vn 0.269056 0.370077 -0.889186
vn 0 0.515403 -0.856948
vn -0.269056 0.370077 -0.889186
vn 0 1 0
vn 0.490177 0.159268 -0.856948
vn 0.951057 0.309017 0
vn 0.435197 -0.141252 -0.889186
vn 0.490177 0.159268 -0.856948
vn 0.269056 0.370077 -0.889186
vn 0.951057 0.309017 0
vn -0.490177 0.159268 -0.856948
vn -0.435197 -0.141252 -0.889186
vn -0.951057 0.309017 0
vn -0.490177 0.159268 -0.856948
vn -0.951057 0.309017 0
vn -0.269056 0.370077 -0.889186
vn 0.302946 -0.416969 -0.856948
vn 0.587785 -0.809017 0
vn -0.000145063 -0.457546 -0.889186
vn 0.302946 -0.416969 -0.856948
vn 0.435197 -0.141252 -0.889186
vn 0.587785 -0.809017 0
vn -0.302946 -0.416969 -0.856948
vn -0.587785 -0.809017 0
vn -0.435197 -0.141252 -0.889186
vn -0.302946 -0.416969 -0.856948
vn -0.000145063 -0.457546 -0.889186
vn -0.587785 -0.809017 0
vn 0 1 0
vn 0.587785 0.809017 0
vn 0.269056 0.370077 -0.889186
vn 0 1 0
vn -0.269056 0.370077 -0.889186
vn -0.587785 0.809017 0
vn 0 1 0
vn 0.269056 0.370077 0.889186
vn 0.587785 0.809017 0
vn 0 1 0
vn -0.587785 0.809017 0
vn -0.269056 0.370077 0.889186
vn 0 1 0
vn 0 0.515403 0.856948
vn 0.269056 0.370077 0.889186
vn 0 1 0
vn -0.269056 0.370077 0.889186
vn 0 0.515403 0.856948
vn -0.587785 0.809017 0
vn -0.269056 0.370077 -0.889186
vn -0.951057 0.309017 0
vn -0.587785 0.809017 0
vn -0.951057 0.309017 0
vn -0.269056 0.370077 0.889186
vn 0.587785 0.809017 0
vn 0.951057 0.309017 0
vn 0.269056 0.370077 -0.889186
vn 0.587785 0.809017 0
vn 0.269056 0.370077 0.889186
vn 0.951057 0.309017 0
vn 0.435197 -0.141252 -0.889186
vn 0.951057 -0.309017 0
vn 0.587785 -0.809017 0
vn 0.435197 -0.141252 -0.889186
vn 0.951057 0.309017 0
vn 0.951057 -0.309017 0
vn -0.435197 -0.141252 -0.889186
vn -0.587785 -0.809017 0
vn -0.951057 -0.309017 0
vn -0.435197 -0.141252 -0.889186
vn -0.951057 -0.309017 0
vn -0.951057 0.309017 0
vn -0.000145063 -0.457546 -0.889186
vn 0.587785 -0.809017 0
vn 0 -1 0
vn -0.000145063 -0.457546 -0.889186
vn 0 -1 0
vn -0.587785 -0.809017 0
vn -0.269056 0.370077 0.889186
vn -0.951057 0.309017 0
vn -0.490177 0.159268 0.856948
vn 0.269056 0.370077 0.889186
vn 0.490177 0.159268 0.856948
vn 0.951057 0.309017 0
vn 0.951057 -0.309017 0
vn 0.435197 -0.141252 0.889186
vn 0.587785 -0.809017 0
vn 0.951057 -0.309017 0
vn 0.951057 0.309017 0
vn 0.435197 -0.141252 0.889186
vn 0.951057 0.309017 0
vn 0.490177 0.159268 0.856948
vn 0.435197 -0.141252 0.889186
vn -0.951057 -0.309017 0
vn -0.587785 -0.809017 0
vn -0.435197 -0.141252 0.889186
vn -0.951057 -0.309017 0
vn -0.435197 -0.141252 0.889186
vn -0.951057 0.309017 0
vn -0.951057 0.309017 0
vn -0.435197 -0.141252 0.889186
vn -0.490177 0.159268 0.856948
vn 0 -1 0
vn 0.587785 -0.809017 0
vn -0.000145063 -0.457546 0.889186
vn 0 -1 0
vn -0.000145063 -0.457546 0.889186
vn -0.587785 -0.809017 0
vn 0.435197 -0.141252 0.889186
vn 0.302946 -0.416969 0.856948
vn 0.587785 -0.809017 0
vn 0.587785 -0.809017 0
vn 0.302946 -0.416969 0.856948
vn -0.000145063 -0.457546 0.889186
vn -0.435197 -0.141252 0.889186
vn -0.587785 -0.809017 0
vn -0.302946 -0.416969 0.856948
vn -0.302946 -0.416969 0.856948
vn -0.587785 -0.809017 0
vn -0.000145063 -0.457546 0.889186

vt -0.106453 0.370569
vt 0.706613 0.776703
vt -0.106453 0.958012
vt -0.106453 0.370569
vt 1.25652 0.552059
vt 0.706613 0.776703
vt -0.106453 0.370569
vt -0.106453 0.958012
vt 0.706613 0.776703
vt -0.106453 0.370569
vt 1.20912 0.21544
vt 1.25652 0.552059
vt -0.106453 0.370569
vt 0.706613 0.776703
vt 1.25652 0.552059
vt -0.106453 0.370569
vt 0.844985 -0.104683
vt 1.20912 0.21544
vt -0.106453 0.370569
vt 1.25652 0.552059
vt 1.20912 0.21544
vt -0.106453 0.370569
vt -0.10576 -0.164045
vt 0.844985 -0.104683
vt -0.106453 0.370569
vt 1.20912 0.21544
vt 0.844985 -0.104683
vt -0.106453 0.370569
vt 0.844985 -0.104683
vt -0.10576 -0.164045
vt 0.0183619 -0.296363
vt 0.0183619 -0.296363
vt 0.0183619 -0.296363
vt 0.0183619 -0.296363
vt 0.0183619 -0.296363
vt 0.0183619 -0.296363
vt 0.0183619 -0.296363
vt 0.0183619 -0.296363
vt 0.0183619 -0.296363
vt 0.0183619 -0.296363
vt 0.0183619 -0.296363
vt 0.0183619 -0.296363
vt 0.0183619 -0.296363
vt 0.0183619 -0.296363
vt 0.0183619 -0.296363
vt 0.0183619 -0.296363
vt 0.0183619 -0.296363
vt 0.0183619 -0.296363
vt 0.0183619 -0.296363
vt 0.0183619 -0.296363
vt 0.0183619 -0.296363
vt 0.0183619 -0.296363
vt 0.0183619 -0.296363
vt 0.0183619 -0.296363
vt 0.0183619 -0.296363
vt 0.0183619 -0.296363
vt 0.0183619 -0.296363
vt 0.0183619 -0.296363
vt 0.0183619 -0.296363
vt 0.0183619 -0.296363
vt 0.0183619 -0.296363
vt 0.0183619 -0.296363
vt 0.0183619 -0.296363
vt 0.0183619 -0.296363
vt 0.0183619 -0.296363
vt 0.0183619 -0.296363
vt 0.0183619 -0.296363
vt 0.0183619 -0.296363
vt 0.0183619 -0.296363
vt 0.0183619 -0.296363
vt 0.0183619 -0.296363
vt 0.0183619 -0.296363
vt 0.0183619 -0.296363
vt 0.0183619 -0.296363
vt 0.0183619 -0.296363
vt 0.0183619 -0.296363
vt 0.0183619 -0.296363
vt 0.0183619 -0.296363
vt 0.0183619 -0.296363
vt 0.0183619 -0.296363
vt 0.0183619 -0.296363
vt 0.0183619 -0.296363
vt 0.0183619 -0.296363
vt 0.0183619 -0.296363
vt 0.0183619 -0.296363
vt 0.0183619 -0.296363
vt 0.0183619 -0.296363
vt 0.0183619 -0.296363
vt 0.0183619 -0.296363
vt 0.0183619 -0.296363
vt 0.0183619 -0.296363
vt 0.0183619 -0.296363
vt 0.0183619 -0.296363
vt 0.0183619 -0.296363
vt 0.0183619 -0.296363
vt 0.0183619 -0.296363
vt 0.0183619 -0.296363
vt 0.0183619 -0.296363
vt 0.0183619 -0.296363
vt 0.0183619 -0.296363
vt 0.0183619 -0.296363
vt 0.0183619 -0.296363
vt 0.0183619 -0.296363
vt 0.0183619 -0.296363
vt 0.0183619 -0.296363
vt 0.0183619 -0.296363
vt 0.0183619 -0.296363
vt 0.0183619 -0.296363
vt 0.0183619 -0.296363
vt 0.0183619 -0.296363
vt 0.0183619 -0.296363
vt 0.0183619 -0.296363
vt 0.0183619 -0.296363
vt 0.0183619 -0.296363
vt 0.0183619 -0.296363
vt 0.0183619 -0.296363
vt 0.0183619 -0.296363
vt 0.0183619 -0.296363
vt 0.0183619 -0.296363
vt 0.0183619 -0.296363
vt 0.0183619 -0.296363
vt 0.0183619 -0.296363
vt 0.0183619 -0.296363
vt 0.0183619 -0.296363
vt 0.0183619 -0.296363
vt 0.0183619 -0.296363
vt 0.0183619 -0.296363
vt 0.0183619 -0.296363
vt 0.0183619 -0.296363
vt 0.0183619 -0.296363
vt 0.0183619 -0.296363
vt 0.0183619 -0.296363
vt 0.0183619 -0.296363
vt 0.0183619 -0.296363
vt 0.0183619 -0.296363
vt 0.0183619 -0.296363
vt 0.0183619 -0.296363
vt 0.0183619 -0.296363
vt 0.0183619 -0.296363
vt 0.0183619 -0.296363
vt 0.0183619 -0.296363
vt 0.0183619 -0.296363
vt 0.0183619 -0.296363
vt 0.0183619 -0.296363
vt 0.0183619 -0.296363
vt 0.0183619 -0.296363
vt 0.0183619 -0.296363
vt 0.0183619 -0.296363
vt 0.0183619 -0.296363
vt 0.0183619 -0.296363
vt 0.0183619 -0.296363
vt 0.0183619 -0.296363
vt 0.0183619 -0.296363
vt 0.0183619 -0.296363
vt 0.0183619 -0.296363
vt 0.0183619 -0.296363
vt 0.0183619 -0.296363
vt 0.0183619 -0.296363
vt 0.0183619 -0.296363
vt 0.0183619 -0.296363
vt 0.0183619 -0.296363
vt 0.0183619 -0.296363
vt 0.0183619 -0.296363
vt 0.0183619 -0.296363
vt 0.0183619 -0.296363
vt 0.0183619 -0.296363
vt 0.0183619 -0.296363
vt 0.0183619 -0.296363
vt 0.0183619 -0.296363
vt 0.0183619 -0.296363
vt 0.0183619 -0.296363
vt 0.0183619 -0.296363
vt 0.0183619 -0.296363
vt 0.0183619 -0.296363
vt 0.0183619 -0.296363
vt 0.0183619 -0.296363
vt 0.0183619 -0.296363
vt 0.0183619 -0.296363
vt 0.0183619 -0.296363
vt 0.0183619 -0.296363

usemtl mat_star

f 1/1/1 2/2/2 3/3/3
f 4/4/4 5/5/5 6/6/6
f 7/7/7 8/8/8 9/9/9
f 10/10/10 11/11/11 12/12/12
f 13/13/13 14/14/14 15/15/15
f 16/16/16 17/17/17 18/18/18
f 19/19/19 20/20/20 21/21/21
f 22/22/22 23/23/23 24/24/24
f 25/25/25 26/26/26 27/27/27
f 28/28/28 29/29/29 30/30/30
f 31/31/31 32/32/32 33/33/33
f 34/34/34 35/35/35 36/36/36
f 37/37/37 38/38/38 39/39/39
f 40/40/40 41/41/41 42/42/42
f 43/43/43 44/44/44 45/45/45
f 46/46/46 47/47/47 48/48/48
f 49/49/49 50/50/50 51/51/51
f 52/52/52 53/53/53 54/54/54
f 55/55/55 56/56/56 57/57/57
f 58/58/58 59/59/59 60/60/60
f 61/61/61 62/62/62 63/63/63
f 64/64/64 65/65/65 66/66/66
f 67/67/67 68/68/68 69/69/69
f 70/70/70 71/71/71 72/72/72
f 73/73/73 74/74/74 75/75/75
f 76/76/76 77/77/77 78/78/78
f 79/79/79 80/80/80 81/81/81
f 82/82/82 83/83/83 84/84/84
f 85/85/85 86/86/86 87/87/87
f 88/88/88 89/89/89 90/90/90
f 91/91/91 92/92/92 93/93/93
f 94/94/94 95/95/95 96/96/96
f 97/97/97 98/98/98 99/99/99
f 100/100/100 101/101/101 102/102/102
f 103/103/103 104/104/104 105/105/105
f 106/106/106 107/107/107 108/108/108
f 109/109/109 110/110/110 111/111/111
f 112/112/112 113/113/113 114/114/114
f 115/115/115 116/116/116 117/117/117
f 118/118/118 119/119/119 120/120/120
f 121/121/121 122/122/122 123/123/123
f 124/124/124 125/125/125 126/126/126
f 127/127/127 128/128/128 129/129/129
f 130/130/130 131/131/131 132/132/132
f 133/133/133 134/134/134 135/135/135
f 136/136/136 137/137/137 138/138/138
f 139/139/139 140/140/140 141/141/141
f 142/142/142 143/143/143 144/144/144
f 145/145/145 146/146/146 147/147/147
f 148/148/148 149/149/149 150/150/150
f 151/151/151 152/152/152 153/153/153
f 154/154/154 155/155/155 156/156/156
f 157/157/157 158/158/158 159/159/159
f 160/160/160 161/161/161 162/162/162
f 163/163/163 164/164/164 165/165/165
f 166/166/166 167/167/167 168/168/168
f 169/169/169 170/170/170 171/171/171
f 172/172/172 173/173/173 174/174/174
f 175/175/175 176/176/176 177/177/177
f 178/178/178 179/179/179 180/180/180
